<svg width="102" height="40" viewBox="0 0 102 40" fill="none" xmlns="http://www.w3.org/2000/svg">
<path d="M38.8271 8.75V29.8878H46.7013C53.156 29.8878 56.9511 25.9619 56.9511 19.2676C56.9511 12.5732 53.1411 8.75 46.7013 8.75H38.8271ZM42.6821 11.9434H46.2979C50.601 11.9434 53.0215 14.5508 53.0215 19.2823C53.0215 24.1015 50.6308 26.6944 46.2979 26.6944H42.6821V11.9434Z" fill="#121127"/>
<path d="M59.7461 29.8878H63.4664V8.75H59.7461V29.8878Z" fill="#121127"/>
<path d="M77.1229 25.2443C76.7195 26.5335 75.4046 27.383 73.6713 27.383C71.2359 27.383 69.682 25.7131 69.682 23.2228V23.0031H80.7536V21.8166C80.7536 17.0998 77.9446 14.0383 73.4473 14.0383C68.8751 14.0383 65.9766 17.2756 65.9766 22.1828C65.9766 27.134 68.8453 30.1955 73.5967 30.1955C77.347 30.1955 80.1262 28.1741 80.6043 25.2443H77.1229ZM73.4622 16.8655C75.5989 16.8655 77.0333 18.4036 77.108 20.6008H69.7119C69.8614 18.4328 71.3705 16.8655 73.4622 16.8655Z" fill="#121127"/>
<path d="M89.0752 24.3212L92.3623 29.8877H96.4263L91.3911 22.0361L96.4861 14.3604H92.4072L89.2545 19.8096H89.1798L85.9823 14.3604H81.7987L86.8638 22.1386L81.7539 29.8877H85.7134L89.0005 24.3212H89.0752Z" fill="#121127"/>
<path fill-rule="evenodd" clip-rule="evenodd" d="M15.3096 34.9998C23.7548 34.9942 30.5992 28.2808 30.5992 19.9999C30.5992 11.719 23.7548 5.00539 15.3096 5C21.2934 7.45152 25.4982 13.2442 25.4982 19.9999C25.4982 26.7554 21.2934 32.5481 15.3096 34.9998Z" fill="#121127" fill-opacity="0.32"/>
<path d="M0 10.3338C0 7.3883 2.40352 5.00049 5.36842 5.00049H8.92519C17.3751 5.00049 24.225 11.7161 24.225 20.0003C24.225 28.2846 17.3751 35.0002 8.92519 35.0002H5.36842C2.40352 35.0002 0 32.6124 0 29.6669V10.3338Z" fill="#121127"/>
</svg>
